{"title":"IIFA Awards (2012) Main Event 720p","uid":7430100,"size":741236293,"categoryP":"video","categoryS":"hd___tv_shows","magnet":"?xt=urn:btih:10d1852174704e28c90619266d283479e123c6d8&amp;dn=IIFA+Awards+%282012%29+Main+Event+720p&amp;tr=udp%3A%2F%2Ftracker.openbittorrent.com%3A80&amp;tr=udp%3A%2F%2Fopen.demonii.com%3A1337&amp;tr=udp%3A%2F%2Ftracker.coppersurfer.tk%3A6969&amp;tr=udp%3A%2F%2Fexodus.desync.com%3A6969","seeders":0,"leechers":1,"uploader":"sameer_ecs","files":2,"time":1341918274,"description":" &lt;a href=&quot;http://i1271.photobucket.com/albums/jj629/sameer_ecs/IIFAAwards2012MainEvent720pavi_thumbs_20120710_140953.jpg&quot; rel=&quot;nofollow&quot; target=&quot;_NEW&quot;&gt;http://i1271.photobucket.com/albums/jj629/sameer_ecs/IIFAAwards2012MainEvent720pavi_thumbs_20120710_140953.jpg&lt;/a&gt;\n\nGeneral\nComplete name : IIFA Awards (2012) Main Event 720p\nFormat : AVI\nFormat/Info : Audio Video Interleave\nFile size : 707 MiB\nDuration : 45mn 12s\nOverall bit rate : 2 185 Kbps\nWriting library : VirtualDub build 32842/release\n\nVideo\nID : 0\nFormat : MPEG-4 Visual\nFormat profile : Advanced Simple@L5\nFormat settings, BVOP : 2\nFormat settings, QPel : No\nFormat settings, GMC : No warppoints\nFormat settings, Matrix : Default (H.263)\nMuxing mode : Packed bitstream\nCodec ID : XVID\nCodec ID/Hint : XviD\nDuration : 45mn 12s\nBit rate : 2 047 Kbps\nWidth : 1 264 pixels\nHeight : 720 pixels\nDisplay aspect ratio : 16:9\nFrame rate : 25.000 fps\nColor space : YUV\nChroma subsampling : 4:2:0\nBit depth : 8 bits\nScan type : Progressive\nCompression mode : Lossy\nBits/(Pixel*Frame) : 0.090\nStream size : 662 MiB (94%)\nWriting library : XviD 64\n\nAudio\nID : 1\nFormat : MPEG Audio\nFormat version : Version 1\nFormat profile : Layer 3\nCodec ID : 55\nCodec ID/Hint : MP3\nDuration : 45mn 12s\nBit rate mode : Constant\nBit rate : 128 Kbps\nChannel(s) : 2 channels\nSampling rate : 44.1 KHz\nCompression mode : Lossy\nStream size : 41.4 MiB (6%)\nAlignment : Split accross interleaves\nInterleave, duration : 40 ms (1.00 video frame)\nInterleave, preload duration : 500 ms\n","torrent":{"xt":"urn:btih:10d1852174704e28c90619266d283479e123c6d8","amp;dn":"IIFA+Awards+%282012%29+Main+Event+720p","amp;tr":["udp%3A%2F%2Ftracker.openbittorrent.com%3A80","udp%3A%2F%2Fopen.demonii.com%3A1337","udp%3A%2F%2Ftracker.coppersurfer.tk%3A6969","udp%3A%2F%2Fexodus.desync.com%3A6969"],"infoHash":"10d1852174704e28c90619266d283479e123c6d8","infoHashBuffer":{"type":"Buffer","data":[16,209,133,33,116,112,78,40,201,6,25,38,109,40,52,121,225,35,198,216]},"announce":[],"urlList":[]}}